<?xml version="1.0" standalone="no"?><!DOCTYPE svg PUBLIC "-//W3C//DTD SVG 1.1//EN" "http://www.w3.org/Graphics/SVG/1.1/DTD/svg11.dtd"><svg t="1749087167969" class="icon" viewBox="0 0 1024 1024" version="1.1" xmlns="http://www.w3.org/2000/svg" p-id="4451" width="32" height="32" xmlns:xlink="http://www.w3.org/1999/xlink"><path d="M886.848 882.304H137.152a9.152 9.152 0 0 0-9.152 9.152V960c0 5.056 4.096 9.152 9.152 9.152h749.696A9.152 9.152 0 0 0 896 960v-68.544a9.152 9.152 0 0 0-9.152-9.152z m0-827.456H137.152A9.152 9.152 0 0 0 128 64v68.544c0 5.056 4.096 9.152 9.152 9.152h749.696A9.152 9.152 0 0 0 896 132.544V64a9.152 9.152 0 0 0-9.152-9.152z m-261.952 304a8.32 8.32 0 0 0 6.528-13.376l-115.2-145.792a8.128 8.128 0 0 0-12.928 0l-115.2 145.792a8.32 8.32 0 0 0 6.528 13.44h76.224v306.24H399.104a8.32 8.32 0 0 0-6.528 13.376l115.2 145.728a8.128 8.128 0 0 0 12.928 0l115.2-145.728a8.32 8.32 0 0 0-6.528-13.44H553.152V358.912h71.744z" fill="#000000" p-id="4452"></path></svg>